<?xml version="1.0" encoding="utf-8"?>
<!-- Generator: Adobe Illustrator 17.0.2, SVG Export Plug-In . SVG Version: 6.00 Build 0)  -->
<!DOCTYPE svg PUBLIC "-//W3C//DTD SVG 1.1//EN" "http://www.w3.org/Graphics/SVG/1.1/DTD/svg11.dtd">
<svg version="1.1" xmlns="http://www.w3.org/2000/svg" xmlns:xlink="http://www.w3.org/1999/xlink" x="0px" y="0px"
	 width="99.924px" height="77.093px" viewBox="0 0 99.924 77.093" enable-background="new 0 0 99.924 77.093" xml:space="preserve">
<g id="logo">
	<g>
		<path fill="#00A5E3" d="M36.696,46.296v5.34c0,1.07,0.545,1.635,1.816,1.635h3.432v-8.609h-3.432
			C37.241,44.662,36.696,45.224,36.696,46.296z M10.473,51.908c0,1.02,0.689,1.582,1.926,1.582h3.195v-3.162h-3.195
			C11.162,50.328,10.473,50.89,10.473,51.908z M27.561,25.353c-0.833-0.053-1.511-0.156-2.292-0.156
			c-1.146,0-2.292,0.207-3.595,0.729L2.71,33.48C0.991,34.157,0,35.095,0,37.439v25.842l47.933,13.077
			c0.989,0.26,2.449,0.678,3.699,0.729c1.042,0.053,1.928-0.26,2.816-0.988l19.639-15.682c1.565-1.25,2.399-2.449,2.399-4.899
			V29.782L27.561,25.353z M18.772,56.139h-6.647c-2.942,0-4.884-1.743-4.884-4.231s1.942-4.23,4.884-4.23h3.487v-1.381
			c0-1.072-0.545-1.635-1.815-1.635h-5.34v-1.707c0-0.744,0.418-1.162,1.163-1.162h4.63c2.87,0,4.522,1.471,4.522,4.342V56.139z
			 M31.375,54.978c0,0.744-0.417,1.161-1.163,1.161h-3.941c-2.87,0-4.522-1.472-4.522-4.34v-4.886h7.755v1.707
			c0,0.745-0.418,1.162-1.162,1.162H24.91v1.854c0,1.07,0.545,1.635,1.816,1.635h4.649V54.978z M31.375,42.283
			c0,0.746-0.417,1.162-1.163,1.162H21.75v-1.707c0-0.744,0.417-1.162,1.162-1.162h8.463V42.283z M45.104,56.139h-7.046
			c-2.869,0-4.522-1.472-4.522-4.34v-5.665c0-2.871,1.653-4.342,4.522-4.342h3.886v-2.506c0-0.744,0.418-1.162,1.162-1.162h1.998
			V56.139z M48.101,54.488h8.465c0.745,0,1.161,0.418,1.161,1.16v1.708h-8.462c-0.744,0-1.164-0.417-1.164-1.165V54.488z
			 M57.727,43.5c0,0.746-0.42,1.162-1.164,1.162h-3.485c-1.271,0-1.817,0.562-1.817,1.635v1.852h4.595v1.708
			c0,0.745-0.417,1.163-1.162,1.163h-6.593v-4.885c0-2.871,1.652-4.342,4.523-4.342h5.104V43.5z M64.228,56.139h-4.468v-1.707
			c0-0.745,0.416-1.161,1.161-1.161h3.143c1.217,0,1.816-0.473,1.816-1.326c0-0.836-0.599-1.272-1.362-1.508l-1.925-0.617
			c-1.652-0.527-2.649-1.889-2.649-3.741c0-2.688,1.979-4.286,4.848-4.286h3.924V43.5c0,0.746-0.42,1.162-1.165,1.162h-2.595
			c-1.22,0-1.818,0.473-1.818,1.326c0,0.835,0.599,1.271,1.361,1.508l1.928,0.617c1.652,0.526,2.65,1.889,2.65,3.74
			C69.076,54.542,67.098,56.139,64.228,56.139z"/>
		<path fill="#00A5E3" d="M22.881,5.916L21.189,1.6h0.624l1.405,3.762L24.623,1.6h0.604l-1.693,4.316H22.881z M26.356,3.787v0.022
			c0,1.059,0.762,1.683,1.603,1.683c0.614,0,1.04-0.158,1.475-0.485v0.593c-0.386,0.288-0.94,0.418-1.475,0.418
			c-1.247,0-2.197-0.853-2.197-2.258c0-1.296,0.891-2.256,2.049-2.256c1.088,0,1.811,0.654,1.811,1.88v0.405H26.356z M29.029,3.293
			c-0.04-0.901-0.524-1.269-1.248-1.269c-0.673,0-1.217,0.456-1.386,1.269H29.029z M31.326,5.916h-0.594v-3.92
			c0.456-0.287,1.01-0.465,1.604-0.465c0.237,0,0.475,0.03,0.723,0.089v0.584c-0.258-0.089-0.565-0.109-0.763-0.109
			c-0.425,0-0.742,0.089-0.97,0.218V5.916z M34.088,3.787v0.022c0,1.059,0.762,1.683,1.604,1.683c0.614,0,1.04-0.158,1.475-0.485
			v0.593c-0.385,0.288-0.94,0.418-1.475,0.418c-1.247,0-2.198-0.853-2.198-2.258c0-1.296,0.891-2.256,2.049-2.256
			c1.089,0,1.812,0.654,1.812,1.88v0.405H34.088z M36.76,3.293c-0.04-0.901-0.524-1.269-1.247-1.269
			c-0.674,0-1.218,0.456-1.387,1.269H36.76z M38.464,1.828c0.574-0.208,1.228-0.327,1.812-0.327c1.089,0,1.752,0.427,1.752,1.505
			v2.91h-0.594V3.125c0-0.882-0.624-1.069-1.207-1.069c-0.455,0-0.861,0.079-1.169,0.158v3.702h-0.593V1.828z M44.027,5.916h-0.595
			V1.6h0.595V5.916z M52.649,1.828c0.574-0.208,1.228-0.327,1.812-0.327c1.088,0,1.751,0.427,1.751,1.505v2.91h-0.594V3.125
			c0-0.882-0.623-1.069-1.208-1.069c-0.456,0-0.861,0.079-1.167,0.158v3.702h-0.595V1.828z M65.588,5.916L63.896,1.6h0.623
			l1.406,3.762L67.331,1.6h0.604l-1.693,4.316H65.588z M71.033,2.897c0-0.555-0.356-0.842-0.91-0.842
			c-0.495,0-0.871,0.138-1.268,0.346V1.837c0.366-0.197,0.832-0.336,1.337-0.336c0.871,0,1.435,0.387,1.435,1.355v2.98
			c-0.396,0.111-0.861,0.159-1.227,0.159c-1.169,0-1.95-0.366-1.95-1.276c0-0.852,0.781-1.297,2.099-1.297h0.484V2.897z
			 M71.033,3.907h-0.445c-0.891,0-1.544,0.238-1.544,0.812c0,0.575,0.594,0.781,1.386,0.781c0.178,0,0.396-0.019,0.604-0.058V3.907z
			 M73.014,1.828c0.574-0.208,1.228-0.327,1.812-0.327c1.089,0,1.753,0.427,1.753,1.505v2.91h-0.596V3.125
			c0-0.882-0.623-1.069-1.207-1.069c-0.455,0-0.861,0.079-1.168,0.158v3.702h-0.594V1.828z M26.098,14.254l0.847-3.213h1.234
			l-1.316,4.552h-1.367l-0.816-2.972l-0.827,2.972h-1.347l-1.315-4.552h1.274l0.837,3.213l0.867-3.213h1.072L26.098,14.254z
			 M31.033,10.939c1.357,0,2.387,0.958,2.387,2.377c0,1.418-1.03,2.376-2.387,2.376c-1.357,0-2.377-0.958-2.377-2.376
			C28.657,11.897,29.676,10.939,31.033,10.939z M31.033,12c-0.663,0-1.143,0.5-1.143,1.316c0,0.815,0.48,1.315,1.143,1.315
			c0.663,0,1.143-0.5,1.143-1.315C32.176,12.499,31.696,12,31.033,12z M34.399,11.336c0.643-0.243,1.49-0.398,2.173-0.398
			c1.184,0,1.949,0.439,1.949,1.796v2.858h-1.235v-2.777c0-0.509-0.275-0.776-0.806-0.776c-0.296,0-0.602,0.052-0.857,0.134v3.419
			h-1.225V11.336z M40.999,15.593h-1.225v-4.552h1.225V15.593z M42.324,11.336c0.643-0.243,1.489-0.398,2.173-0.398
			c1.184,0,1.948,0.439,1.948,1.796v2.858h-1.234v-2.777c0-0.509-0.275-0.776-0.807-0.776c-0.296,0-0.602,0.052-0.857,0.134v3.419
			h-1.224V11.336z M56.514,12.439c-0.378-0.307-0.746-0.419-1.163-0.419c-0.756,0-1.296,0.471-1.296,1.286
			c0,0.775,0.521,1.306,1.347,1.306c0.428,0,0.806-0.143,1.152-0.408v1.153c-0.407,0.246-0.856,0.337-1.326,0.337
			c-1.469,0-2.407-0.938-2.407-2.366c0-1.439,1.01-2.388,2.397-2.388c0.521,0,0.908,0.102,1.296,0.337V12.439z M59.623,10.939
			c1.357,0,2.389,0.958,2.389,2.377c0,1.418-1.031,2.376-2.389,2.376c-1.355,0-2.376-0.958-2.376-2.376
			C57.247,11.897,58.268,10.939,59.623,10.939z M59.623,12c-0.662,0-1.143,0.5-1.143,1.316c0,0.815,0.48,1.315,1.143,1.315
			c0.664,0,1.143-0.5,1.143-1.315C60.766,12.499,60.287,12,59.623,12z M64.214,15.593H62.99v-4.204
			c0.499-0.267,1.152-0.421,1.815-0.421c0.356,0,0.612,0.033,0.948,0.125v1.181c-0.296-0.122-0.623-0.152-0.918-0.152
			c-0.225,0-0.428,0.04-0.622,0.102V15.593z M66.539,11.316c0.489-0.205,1.234-0.377,1.989-0.377c1.489,0,2.5,0.847,2.5,2.284
			c0,1.583-0.949,2.469-2.53,2.469c-0.307,0-0.572-0.04-0.725-0.091v1.827h-1.234V11.316z M67.773,14.531
			c0.163,0.06,0.398,0.09,0.633,0.09c0.785,0,1.377-0.418,1.377-1.357c0-0.785-0.521-1.225-1.275-1.225
			c-0.244,0-0.53,0.031-0.734,0.113V14.531z M74.107,10.939c1.357,0,2.388,0.958,2.388,2.377c0,1.418-1.03,2.376-2.388,2.376
			c-1.356,0-2.377-0.958-2.377-2.376C71.73,11.897,72.751,10.939,74.107,10.939z M74.107,12c-0.663,0-1.143,0.5-1.143,1.316
			c0,0.815,0.479,1.315,1.143,1.315c0.663,0,1.143-0.5,1.143-1.315C75.25,12.499,74.77,12,74.107,12z M78.697,15.593h-1.225v-4.204
			c0.5-0.267,1.152-0.421,1.816-0.421c0.357,0,0.612,0.033,0.949,0.125v1.181c-0.296-0.122-0.623-0.152-0.918-0.152
			c-0.226,0-0.429,0.04-0.623,0.102V15.593z M83.247,12.611c0-0.438-0.368-0.622-0.816-0.622c-0.541,0-0.959,0.163-1.316,0.377
			v-1.061c0.408-0.235,0.949-0.368,1.53-0.368c1.041,0,1.816,0.408,1.816,1.623v2.937c-0.439,0.103-1.133,0.186-1.714,0.186
			c-1.153,0-2.041-0.348-2.041-1.398c0-0.95,0.766-1.4,2.041-1.4h0.5V12.611z M83.247,13.674h-0.409c-0.57,0-0.908,0.162-0.908,0.55
			c0,0.387,0.316,0.561,0.807,0.561c0.133,0,0.347-0.011,0.511-0.051V13.674z M85.071,11.041h0.684V9.918h1.225v1.123h1.296v1.02
			h-1.296v1.827c0,0.519,0.245,0.684,0.612,0.684c0.307,0,0.571-0.093,0.836-0.257v1.123c-0.326,0.172-0.714,0.253-1.173,0.253
			c-0.785,0-1.5-0.377-1.5-1.479v-2.153h-0.684V11.041z M92.763,13.653v0.021c0.093,0.642,0.725,0.968,1.337,0.968
			c0.611,0,1.071-0.142,1.52-0.408v1.041c-0.418,0.295-1.029,0.418-1.643,0.418c-1.479,0-2.408-0.907-2.408-2.326
			c0-1.5,0.949-2.428,2.225-2.428c1.418,0,1.969,0.938,1.969,2.143v0.571H92.763z M94.619,12.918
			c-0.01-0.562-0.275-0.969-0.856-0.969c-0.53,0-0.878,0.376-0.989,0.969H94.619z M96.639,14.192c0.429,0.317,1,0.512,1.449,0.512
			c0.377,0,0.632-0.113,0.632-0.398c0-0.276-0.194-0.388-0.694-0.49c-1.03-0.184-1.459-0.593-1.459-1.418
			c0-0.999,0.756-1.458,1.734-1.458c0.541,0,0.939,0.111,1.337,0.337v1.091c-0.429-0.286-0.826-0.438-1.296-0.438
			c-0.407,0-0.581,0.173-0.581,0.386c0,0.234,0.163,0.358,0.592,0.46c1.173,0.214,1.571,0.662,1.571,1.479
			c0,0.99-0.745,1.438-1.806,1.438c-0.552,0-1.112-0.131-1.479-0.367V14.192z M44.09,0.719h-0.72V0h0.72V0.719z M51.195,5.916H50.6
			V1.6h0.595V5.916z M51.257,0.719h-0.72V0h0.72V0.719z M41.011,10.347h-1.25v-1.25h1.25V10.347z M90.58,15.593h-1.225v-4.552h1.225
			V15.593z M90.592,10.347h-1.248v-1.25h1.248V10.347z M47.733,1.499c-1.519,0-2.493,0.845-2.493,2.247
			c0,1.48,0.993,2.225,2.414,2.225c0.349,0,0.746-0.09,0.895-0.188v0.049c0,1.094-0.51,1.44-1.477,1.44h-1.19v0.508h1.381
			c1.063,0,1.882-0.519,1.882-1.838V1.778C48.778,1.619,48.182,1.499,47.733,1.499z M48.549,5.276
			c-0.299,0.11-0.538,0.168-0.895,0.168c-1.122,0-1.818-0.656-1.818-1.698c0-1.064,0.696-1.699,1.897-1.699
			c0.309,0,0.577,0.05,0.816,0.129V5.276z M59.871,1.499c-1.521,0-2.494,0.845-2.494,2.247c0,1.48,0.994,2.225,2.415,2.225
			c0.347,0,0.745-0.09,0.893-0.188v0.049c0,1.094-0.508,1.44-1.475,1.44h-1.191v0.508H59.4c1.064,0,1.881-0.519,1.881-1.838V1.778
			C60.914,1.619,60.318,1.499,59.871,1.499z M60.685,5.276c-0.297,0.11-0.536,0.168-0.893,0.168c-1.124,0-1.818-0.656-1.818-1.698
			c0-1.064,0.694-1.699,1.897-1.699c0.308,0,0.576,0.05,0.814,0.129V5.276z M48.17,16.497v1.027h1.419
			c1.078,0,2.283-0.447,2.283-2.007v-4.231c-0.498-0.205-1.142-0.348-1.845-0.348c-1.591,0-2.56,0.875-2.56,2.325
			c0,1.487,0.959,2.283,2.336,2.283c0.347,0,0.682-0.071,0.835-0.153v0.093c0,0.693-0.414,1.008-1.118,1.008L48.17,16.497z
			 M50.639,14.386c-0.214,0.07-0.417,0.133-0.693,0.133c-0.744,0-1.232-0.47-1.232-1.254c0-0.836,0.499-1.254,1.314-1.254
			c0.224,0,0.447,0.04,0.611,0.09V14.386z"/>
	</g>
</g>
<g id="Uitlijning" display="none">
	<g display="inline">
		<line fill="none" stroke="#EC008C" stroke-width="0.1063" x1="1.331" y1="-1.791" x2="1.331" y2="-6.574"/>
		<line fill="none" stroke="#EC008C" stroke-width="0.1063" x1="1.331" y1="86.52" x2="1.331" y2="81.736"/>
		<line fill="none" stroke="#EC008C" stroke-width="0.1063" x1="-27.37" y1="50.827" x2="-22.586" y2="50.827"/>
		<line fill="none" stroke="#EC008C" stroke-width="0.1063" x1="82.874" y1="50.827" x2="87.658" y2="50.827"/>
		<rect x="-22.586" y="-1.791" fill="none" stroke="#EC008C" stroke-width="0.1063" width="105.46" height="83.527"/>
	</g>
</g>
</svg>
